<?xml version="1.0" encoding="UTF-8"?>
<svg xmlns="http://www.w3.org/2000/svg" xmlns:xlink="http://www.w3.org/1999/xlink" width="40px" height="40px" viewBox="0 0 40 40" version="1.1">
<g id="surface1">
<path style="fill-rule:nonzero;fill:rgb(100%,100%,100%);fill-opacity:1;stroke-width:1;stroke-linecap:butt;stroke-linejoin:miter;stroke:rgb(100%,100%,100%);stroke-opacity:1;stroke-miterlimit:4;" d="M 303.482031 416.021777 C 298.824902 416.021777 294.981641 412.178516 294.981641 407.521387 C 294.981641 402.819043 298.824902 399.020996 303.482031 399.020996 C 303.75332 399.020996 304.024609 398.975781 304.250684 398.975781 C 312.479785 398.568848 318.990723 391.786621 318.990723 383.512305 L 318.990723 196.187207 C 318.990723 187.279883 318.131641 178.327344 316.368262 169.600879 L 312.118066 148.440332 C 311.12334 143.28584 307.551367 139.171289 302.894238 137.227051 C 302.125586 106.571387 295.614648 74.197559 285.124805 49.374609 C 271.695996 17.543359 252.660547 0 231.5 0 C 210.339453 0 191.304004 17.543359 177.875195 49.374609 C 167.385352 74.197559 160.874414 106.571387 160.105762 137.227051 C 155.448633 139.171289 151.87666 143.28584 150.836719 148.440332 L 146.631738 169.600879 C 144.868359 178.327344 144.009277 187.279883 144.009277 196.187207 L 144.009277 383.512305 C 144.009277 391.786621 150.520215 398.568848 158.749316 398.975781 C 158.975391 398.975781 159.24668 399.020996 159.517969 399.020996 C 164.175098 399.020996 168.018359 402.819043 168.018359 407.521387 C 168.018359 412.178516 164.175098 416.021777 159.517969 416.021777 C 146.541309 416.021777 136.00625 426.556836 136.00625 439.488281 C 136.00625 452.464941 146.541309 463 159.517969 463 L 303.482031 463 C 316.458691 463 326.99375 452.464941 326.99375 439.488281 C 326.99375 426.556836 316.458691 416.021777 303.482031 416.021777 Z M 191.665723 55.207324 C 198.041016 40.195996 211.650684 15.011328 231.5 15.011328 C 262.517383 15.011328 285.983887 77.407812 287.88291 136.00625 L 175.11709 136.00625 C 176.066602 107.656543 182.080176 77.950391 191.665723 55.207324 Z M 159.020605 196.187207 C 159.020605 188.274609 159.789258 180.316797 161.326562 172.539844 L 165.576758 151.424512 C 165.621973 151.153223 165.802832 151.017578 166.074121 151.017578 L 296.925879 151.017578 C 297.197168 151.017578 297.378027 151.153223 297.423242 151.424512 L 301.673437 172.539844 C 303.210742 180.316797 303.979395 188.274609 303.979395 196.187207 L 303.979395 383.512305 C 303.979395 383.783594 303.798535 384.009668 303.482031 384.009668 L 159.517969 384.009668 C 159.24668 384.009668 159.020605 383.783594 159.020605 383.512305 Z M 181.401953 399.020996 L 281.598047 399.020996 C 280.558105 401.643457 280.015527 404.491992 280.015527 407.521387 C 280.015527 410.505566 280.558105 413.354102 281.598047 416.021777 L 181.401953 416.021777 C 182.441895 413.354102 182.984473 410.505566 182.984473 407.521387 C 182.984473 404.491992 182.441895 401.643457 181.401953 399.020996 Z M 303.482031 447.988672 L 159.517969 447.988672 C 154.815625 447.988672 151.017578 444.190625 151.017578 439.488281 C 151.017578 434.831152 154.815625 430.987891 159.517969 430.987891 L 303.482031 430.987891 C 308.184375 430.987891 311.982422 434.831152 311.982422 439.488281 C 311.982422 444.190625 308.184375 447.988672 303.482031 447.988672 Z M 303.482031 447.988672 " transform="matrix(0.0863931,0,0,0.0863931,0,0)"/>
</g>
</svg>
