<?xml version="1.0" encoding="UTF-8"?>
<svg xmlns="http://www.w3.org/2000/svg" xmlns:xlink="http://www.w3.org/1999/xlink" width="30px" height="30px" viewBox="0 0 30 30" version="1.1">
<g id="surface1">
<path style=" stroke:none;fill-rule:nonzero;fill:rgb(0%,0%,0%);fill-opacity:1;" d="M 26.570312 13.195312 C 25.992188 12.878906 25.316406 12.898438 24.757812 13.253906 C 23.152344 14.273438 20.855469 14.730469 18.070312 14.589844 C 18.699219 13.597656 19.035156 12.441406 19.035156 11.246094 C 19.035156 7.792969 16.226562 4.984375 12.773438 4.984375 C 9.488281 4.984375 6.789062 7.492188 6.527344 10.730469 C 5.996094 11.265625 4.679688 12.40625 3.039062 12.601562 C 2.8125 12.628906 2.617188 12.78125 2.539062 12.996094 C 2.457031 13.210938 2.507812 13.453125 2.660156 13.621094 C 2.738281 13.707031 4.492188 15.5625 7.820312 15.5625 C 7.953125 15.5625 8.085938 15.558594 8.222656 15.554688 C 8.25 15.582031 8.273438 15.609375 8.300781 15.636719 C 7.351562 16.652344 6.8125 17.984375 6.804688 19.378906 C 6.792969 20.882812 7.371094 22.296875 8.429688 23.363281 C 9.488281 24.429688 10.898438 25.015625 12.398438 25.015625 L 19.992188 25.015625 C 22.453125 25.015625 24.441406 24.042969 25.746094 22.203125 C 26.894531 20.585938 27.5 18.332031 27.5 15.675781 L 27.5 14.765625 C 27.5 14.113281 27.144531 13.511719 26.570312 13.195312 Z M 4.503906 13.496094 C 5.339844 13.191406 6.050781 12.734375 6.597656 12.304688 C 6.71875 13.015625 6.960938 13.695312 7.316406 14.324219 C 6.070312 14.238281 5.132812 13.859375 4.503906 13.496094 Z M 26.277344 15.675781 C 26.277344 18.074219 25.75 20.085938 24.75 21.496094 C 23.667969 23.019531 22.066406 23.792969 19.992188 23.792969 L 12.398438 23.792969 C 11.226562 23.792969 10.125 23.335938 9.296875 22.5 C 8.46875 21.667969 8.019531 20.5625 8.027344 19.386719 C 8.035156 18.121094 8.605469 16.921875 9.589844 16.09375 C 9.730469 15.976562 9.808594 15.804688 9.808594 15.621094 C 9.808594 15.4375 9.722656 15.265625 9.582031 15.152344 C 9.355469 14.964844 9.140625 14.753906 8.945312 14.527344 C 8.160156 13.617188 7.730469 12.453125 7.730469 11.246094 C 7.730469 11.167969 7.730469 11.097656 7.734375 11.023438 C 7.855469 8.320312 10.066406 6.207031 12.773438 6.207031 C 15.550781 6.207031 17.8125 8.46875 17.8125 11.246094 C 17.8125 12.53125 17.328125 13.757812 16.449219 14.695312 C 16.289062 14.863281 16.242188 15.109375 16.324219 15.328125 C 16.402344 15.542969 16.601562 15.695312 16.832031 15.722656 C 20.398438 16.082031 23.363281 15.585938 25.414062 14.285156 C 25.664062 14.125 25.894531 14.21875 25.980469 14.269531 C 26.070312 14.316406 26.277344 14.464844 26.277344 14.765625 Z M 26.277344 15.675781 "/>
<path style=" stroke:none;fill-rule:nonzero;fill:rgb(0%,0%,0%);fill-opacity:1;" d="M 17.285156 20.796875 L 16.777344 20.796875 C 16.4375 20.796875 16.164062 21.070312 16.164062 21.410156 C 16.164062 21.746094 16.4375 22.019531 16.777344 22.019531 L 17.285156 22.019531 C 17.625 22.019531 17.898438 21.746094 17.898438 21.410156 C 17.898438 21.070312 17.625 20.796875 17.285156 20.796875 Z M 17.285156 20.796875 "/>
<path style=" stroke:none;fill-rule:nonzero;fill:rgb(0%,0%,0%);fill-opacity:1;" d="M 23.28125 18.324219 C 23 18.136719 22.617188 18.214844 22.433594 18.496094 C 21.757812 19.515625 20.742188 20.261719 19.570312 20.597656 C 19.246094 20.691406 19.058594 21.03125 19.152344 21.355469 C 19.230469 21.625 19.476562 21.796875 19.742188 21.796875 C 19.796875 21.796875 19.851562 21.789062 19.910156 21.773438 C 21.359375 21.359375 22.617188 20.433594 23.453125 19.171875 C 23.640625 18.886719 23.5625 18.507812 23.28125 18.324219 Z M 23.28125 18.324219 "/>
<path style=" stroke:none;fill-rule:nonzero;fill:rgb(0%,0%,0%);fill-opacity:1;" d="M 11.246094 8.671875 C 10.90625 8.671875 10.632812 8.945312 10.632812 9.28125 L 10.632812 10.816406 C 10.632812 11.152344 10.90625 11.429688 11.246094 11.429688 C 11.582031 11.429688 11.855469 11.152344 11.855469 10.816406 L 11.855469 9.28125 C 11.855469 8.945312 11.582031 8.671875 11.246094 8.671875 Z M 11.246094 8.671875 "/>
</g>
</svg>
